<svg width="18" height="21" viewBox="0 0 18 21" fill="none" xmlns="http://www.w3.org/2000/svg">
<path d="M17.4556 7.15814C16.7692 7.5784 16.2006 8.16594 15.8031 8.86579C15.4055 9.56563 15.1921 10.3549 15.1826 11.1597C15.1853 12.0655 15.4537 12.9506 15.9545 13.7054C16.4553 14.4602 17.1665 15.0515 18 15.4061C17.6714 16.4664 17.185 17.4712 16.5572 18.3868C15.659 19.6798 14.7198 20.9727 13.2908 20.9727C11.8617 20.9727 11.4942 20.1425 9.84729 20.1425C8.24129 20.1425 7.66959 21 6.36297 21C5.05635 21 4.14455 19.8022 3.09649 18.3323C1.71208 16.2732 0.951222 13.8583 0.905212 11.3774C0.905212 7.29427 3.55931 5.13028 6.17241 5.13028C7.56069 5.13028 8.71769 6.04208 9.58869 6.04208C10.419 6.04208 11.712 5.07572 13.2908 5.07572C14.1025 5.05478 14.9069 5.23375 15.6332 5.59689C16.3595 5.96003 16.9853 6.49619 17.4556 7.15814ZM12.5422 3.34726C13.2382 2.52858 13.6321 1.49589 13.6583 0.421702C13.6595 0.280092 13.6458 0.13875 13.6175 0C12.422 0.116777 11.3165 0.686551 10.5278 1.59245C9.82519 2.37851 9.41639 3.38362 9.37089 4.43697C9.37139 4.56507 9.38509 4.69278 9.41179 4.81808C9.50599 4.8359 9.60169 4.84503 9.69759 4.84536C10.2485 4.80152 10.7848 4.64611 11.2738 4.38858C11.7629 4.13104 12.1944 3.77676 12.5422 3.34726Z" fill="#FFFFEB"/>
</svg>
