<svg width="13" height="16" viewBox="0 0 13 16" fill="none" xmlns="http://www.w3.org/2000/svg">
<path d="M2.75 4.25C2.75 2.17894 4.42893 0.5 6.49998 0.5C8.57103 0.5 10.25 2.17894 10.25 4.25V7.625C10.25 9.69605 8.57103 11.375 6.49998 11.375C4.42893 11.375 2.75 9.69605 2.75 7.625V4.25Z" fill="black"/>
<path d="M1.85933 9.64997C1.73496 9.36527 1.40336 9.23529 1.11868 9.35972C0.834009 9.48407 0.704064 9.81572 0.828444 10.1003C1.71143 12.1213 3.64382 13.5806 5.93832 13.7874V14.9376C5.93832 15.2483 6.19017 15.5001 6.50082 15.5001C6.81147 15.5001 7.06332 15.2483 7.06332 14.9376V13.7874C9.35787 13.5806 11.2902 12.1213 12.1732 10.1003C12.2976 9.81572 12.1677 9.48407 11.883 9.35972C11.5983 9.23529 11.2667 9.36527 11.1423 9.64997C10.3606 11.4391 8.57592 12.6876 6.50082 12.6876C4.42577 12.6876 2.64105 11.4391 1.85933 9.64997Z" fill="black"/>
</svg>
