<svg width="25" height="29" viewBox="0 0 25 29" fill="none" xmlns="http://www.w3.org/2000/svg">
<path d="M4.55676 9.18553H20.4609V9.54566C20.4609 13.4556 20.4617 17.3657 20.4605 21.2756C20.4602 22.5976 19.7465 23.2965 18.4026 23.297C18.0683 23.297 17.7339 23.297 17.4226 23.297C17.4226 24.6977 17.438 26.0588 17.417 27.4194C17.4039 28.2632 16.6657 28.9636 15.8196 28.9942C14.9109 29.027 14.0811 28.4049 14.0489 27.5429C13.997 26.1492 14.0349 24.7524 14.0349 23.3269H10.9862C10.9862 23.8806 10.9873 24.4348 10.986 24.9889C10.9842 25.8053 11.0019 26.6222 10.972 27.4376C10.9426 28.2356 10.3074 28.8881 9.52409 28.9858C8.6929 29.0897 7.91551 28.6141 7.66873 27.8372C7.61422 27.6653 7.58215 27.4794 7.58091 27.2998C7.57322 26.1398 7.57517 24.9797 7.57879 23.8196C7.57923 23.6604 7.60623 23.5014 7.62531 23.2969C7.22978 23.2969 6.84201 23.2993 6.45407 23.2965C5.30607 23.2883 4.55894 22.5531 4.55814 21.4153C4.55485 17.441 4.55683 13.4665 4.55673 9.49207V9.18553H4.55676ZM20.4678 8.02584H4.54104C4.68902 5.30584 6.25333 3.61495 8.57841 2.41428C8.34154 2.05956 8.11138 1.71433 7.88055 1.36966C7.71253 1.11902 7.54229 0.870076 7.37517 0.619039C7.25729 0.441993 7.06847 0.242452 7.33037 0.0658041C7.61315 -0.125011 7.72865 0.141918 7.85355 0.323875C8.15202 0.759289 8.44642 1.19759 8.7418 1.6351C9.10566 2.1739 9.10539 2.17376 9.73074 1.99367C11.7197 1.42099 13.6955 1.4535 15.6577 2.11982C15.7279 2.14377 15.7999 2.16298 15.8919 2.19062C16.2987 1.58888 16.7019 0.992176 17.1051 0.395675C17.1534 0.32414 17.2006 0.252107 17.2504 0.181733C17.364 0.0212772 17.5083 -0.0652881 17.6897 0.0670318C17.8541 0.186777 17.8261 0.339535 17.7224 0.492625C17.372 1.00986 17.0238 1.52872 16.675 2.04705C16.5972 2.16285 16.5206 2.27944 16.4314 2.41359C18.7439 3.60357 20.3221 5.29772 20.468 8.02584H20.4678ZM16.7651 4.96632C16.7701 4.51129 16.3843 4.12412 15.9212 4.11905C15.4538 4.11387 15.073 4.48565 15.0693 4.95079C15.0655 5.42161 15.4304 5.78768 15.9063 5.79073C16.38 5.79355 16.7604 5.42854 16.7651 4.96632ZM9.9382 4.94611C9.93205 4.48153 9.54817 4.11022 9.08269 4.11891C8.62056 4.12737 8.23514 4.51863 8.24327 4.97086C8.25153 5.43229 8.63504 5.79617 9.10734 5.79119C9.58216 5.78622 9.94434 5.41786 9.9382 4.94611ZM24.9989 14.454C24.9988 15.6237 25.002 16.7934 24.998 17.9629C24.9943 18.9925 24.278 19.7359 23.2994 19.7352C22.3217 19.7346 21.5991 18.9862 21.5981 17.9631C21.5959 15.5916 21.5932 13.2202 21.6001 10.8488C21.6026 9.97583 22.2501 9.27498 23.1044 9.18712C23.9937 9.09571 24.7728 9.64065 24.9612 10.4979C24.9974 10.6633 24.997 10.8387 24.9974 11.0096C25.0004 12.1578 24.9989 13.3059 24.9988 14.4541L24.9989 14.454ZM3.40497 14.4542C3.40497 15.6775 3.41676 16.9011 3.40063 18.1241C3.39069 18.8739 2.85632 19.5056 2.12891 19.689C1.41775 19.8682 0.63781 19.577 0.273817 18.9383C0.125405 18.6778 0.0180344 18.3551 0.0155491 18.0596C-0.00493768 15.656 -0.0023849 13.2522 0.00725396 10.8485C0.0110826 9.90114 0.76785 9.17434 1.7092 9.17434C2.65448 9.17448 3.39365 9.89023 3.4043 10.8487C3.4179 12.0505 3.40765 13.2523 3.40765 14.4542C3.40671 14.4542 3.40584 14.4542 3.40487 14.4542H3.40497V14.4542Z" fill="#1A1A1A"/>
</svg>
