<svg width="21" height="21" viewBox="0 0 21 21" fill="none" xmlns="http://www.w3.org/2000/svg">
<path d="M5.52482 7.13887H15.4627V7.36665C15.4627 9.83968 15.4631 12.3128 15.4624 14.7857C15.4622 15.6219 15.0162 16.064 14.1765 16.0643C13.9676 16.0643 13.7587 16.0643 13.5642 16.0643C13.5642 16.9502 13.5737 17.8111 13.5606 18.6717C13.5525 19.2054 13.0912 19.6483 12.5625 19.6677C11.9947 19.6885 11.4762 19.2949 11.456 18.7498C11.4236 17.8683 11.4473 16.9848 11.4473 16.0832H9.54231C9.54231 16.4334 9.54301 16.7839 9.54221 17.1344C9.54107 17.6507 9.55211 18.1674 9.53341 18.6832C9.51503 19.1879 9.11815 19.6006 8.6287 19.6624C8.10932 19.7281 7.62356 19.4273 7.46936 18.9359C7.4353 18.8272 7.41526 18.7096 7.41448 18.596C7.40968 17.8623 7.41089 17.1286 7.41316 16.3948C7.41343 16.2941 7.43031 16.1935 7.44223 16.0642C7.19508 16.0642 6.95277 16.0657 6.71037 16.064C5.99303 16.0587 5.52618 15.5938 5.52568 14.8741C5.52362 12.3604 5.52486 9.84654 5.5248 7.33276V7.13887H5.52482ZM15.4669 6.40538H5.515C5.60746 4.685 6.58494 3.61553 8.03778 2.85612C7.88977 2.63176 7.74595 2.4134 7.60172 2.1954C7.49673 2.03687 7.39035 1.87942 7.28592 1.72064C7.21226 1.60866 7.09428 1.48245 7.25793 1.37072C7.43463 1.25003 7.5068 1.41886 7.58484 1.53395C7.77135 1.80935 7.95531 2.08657 8.13988 2.36329C8.36724 2.70407 8.36707 2.70399 8.75782 2.59008C10.0006 2.22786 11.2353 2.24843 12.4613 2.66987C12.5052 2.68502 12.5502 2.69717 12.6077 2.71465C12.8619 2.33405 13.1138 1.95664 13.3657 1.57936C13.3959 1.53412 13.4254 1.48856 13.4566 1.44405C13.5275 1.34256 13.6177 1.28781 13.7311 1.3715C13.8338 1.44724 13.8163 1.54385 13.7515 1.64068C13.5325 1.96783 13.3149 2.29601 13.097 2.62385C13.0484 2.69709 13.0005 2.77083 12.9448 2.85568C14.3898 3.60833 15.3759 4.67986 15.4671 6.40538H15.4669ZM13.1533 4.47026C13.1564 4.18246 12.9154 3.93758 12.626 3.93436C12.3339 3.93109 12.096 4.16624 12.0937 4.46044C12.0913 4.75822 12.3193 4.98976 12.6166 4.99169C12.9126 4.99347 13.1504 4.76261 13.1533 4.47026ZM8.88745 4.45748C8.88361 4.16363 8.64374 3.92878 8.35288 3.93428C8.06412 3.93963 7.82329 4.1871 7.82836 4.47313C7.83353 4.76498 8.07316 4.99513 8.36828 4.99198C8.66498 4.98884 8.89129 4.75585 8.88745 4.45748ZM18.2982 10.4712C18.2982 11.2109 18.3002 11.9508 18.2977 12.6905C18.2954 13.3417 17.8478 13.8119 17.2363 13.8114C16.6254 13.8111 16.1739 13.3377 16.1733 12.6906C16.1719 11.1906 16.1702 9.69078 16.1745 8.19087C16.1761 7.63873 16.5807 7.19545 17.1145 7.13988C17.6701 7.08206 18.157 7.42673 18.2747 7.96892C18.2973 8.07356 18.2971 8.18447 18.2973 8.29258C18.2992 9.01884 18.2983 9.74499 18.2982 10.4712L18.2982 10.4712ZM4.80511 10.4712C4.80511 11.245 4.81248 12.0189 4.8024 12.7924C4.79619 13.2667 4.46229 13.6662 4.00776 13.7822C3.56338 13.8956 3.07603 13.7114 2.84859 13.3074C2.75585 13.1426 2.68876 12.9385 2.68721 12.7516C2.6744 11.2314 2.676 9.71099 2.68202 8.1907C2.68442 7.59149 3.15729 7.1318 3.7455 7.1318C4.33616 7.13188 4.79804 7.58459 4.80469 8.1908C4.81319 8.95093 4.80679 9.7111 4.80679 10.4713C4.8062 10.4713 4.80566 10.4713 4.80505 10.4713H4.80511V10.4712Z" fill="#FFFFEB"/>
</svg>
