<svg width="17" height="20" viewBox="0 0 17 20" fill="none" xmlns="http://www.w3.org/2000/svg">
<path d="M3.34733 6.30977H13.2852V6.53755C13.2852 9.01058 13.2856 11.4837 13.2849 13.9566C13.2847 14.7928 12.8388 15.2349 11.999 15.2352C11.7901 15.2352 11.5812 15.2352 11.3867 15.2352C11.3867 16.1211 11.3963 16.982 11.3831 17.8426C11.375 18.3763 10.9137 18.8192 10.385 18.8386C9.8172 18.8594 9.29868 18.4658 9.27856 17.9207C9.24616 17.0392 9.26983 16.1557 9.26983 15.2541H7.36482C7.36482 15.6043 7.36552 15.9548 7.36472 16.3053C7.36359 16.8216 7.37462 17.3383 7.35593 17.8541C7.33754 18.3588 6.94066 18.7715 6.45121 18.8333C5.93183 18.899 5.44607 18.5982 5.29187 18.1068C5.25781 17.9981 5.23777 17.8805 5.23699 17.7669C5.23219 17.0332 5.2334 16.2995 5.23567 15.5657C5.23594 15.465 5.25282 15.3644 5.26474 15.2351C5.01759 15.2351 4.77528 15.2366 4.53288 15.2349C3.81554 15.2296 3.34869 14.7647 3.34819 14.045C3.34613 11.5313 3.34737 9.01744 3.34731 6.50366V6.30977H3.34733ZM13.2894 5.57628H3.33751C3.42997 3.8559 4.40745 2.78643 5.86029 2.02701C5.71228 1.80266 5.56846 1.5843 5.42423 1.3663C5.31924 1.20777 5.21286 1.05032 5.10843 0.891537C5.03477 0.779557 4.91679 0.653349 5.08044 0.541621C5.25714 0.420931 5.32931 0.589762 5.40735 0.704848C5.59386 0.980244 5.77782 1.25747 5.96239 1.53418C6.18975 1.87497 6.18958 1.87489 6.58033 1.76098C7.82313 1.39876 9.05777 1.41933 10.2838 1.84077C10.3277 1.85592 10.3727 1.86807 10.4302 1.88555C10.6844 1.50495 10.9363 1.12754 11.1882 0.750261C11.2184 0.705016 11.2479 0.659456 11.2791 0.614945C11.35 0.513458 11.4402 0.458706 11.5536 0.542397C11.6563 0.618135 11.6388 0.714753 11.574 0.811582C11.355 1.13873 11.1374 1.4669 10.9195 1.79474C10.8709 1.86798 10.823 1.94173 10.7673 2.02657C12.2123 2.77923 13.1984 3.85076 13.2896 5.57628H13.2894ZM10.9758 3.64116C10.9789 3.35336 10.7379 3.10847 10.4485 3.10526C10.1564 3.10199 9.91848 3.33714 9.91617 3.63133C9.91378 3.92912 10.1418 4.16066 10.4392 4.16259C10.7352 4.16437 10.9729 3.93351 10.9758 3.64116ZM6.70996 3.62838C6.70612 3.33453 6.46625 3.09968 6.17539 3.10518C5.88663 3.11053 5.6458 3.358 5.65087 3.64403C5.65604 3.93588 5.89567 4.16603 6.1908 4.16288C6.48749 4.15974 6.7138 3.92675 6.70996 3.62838ZM16.1208 9.64206C16.1207 10.3818 16.1227 11.1217 16.1202 11.8614C16.1179 12.5126 15.6703 12.9828 15.0588 12.9823C14.4479 12.982 13.9964 12.5086 13.9958 11.8615C13.9944 10.3615 13.9927 8.86168 13.997 7.36177C13.9986 6.80963 14.4032 6.36635 14.937 6.31078C15.4926 6.25296 15.9795 6.59763 16.0972 7.13982C16.1199 7.24446 16.1196 7.35537 16.1199 7.46348C16.1217 8.18974 16.1208 8.91589 16.1207 9.64212L16.1208 9.64206ZM2.62762 9.64214C2.62762 10.4159 2.63499 11.1898 2.62491 11.9633C2.6187 12.4376 2.2848 12.8371 1.83027 12.9531C1.38589 13.0665 0.898541 12.8823 0.671097 12.4783C0.578361 12.3135 0.511269 12.1094 0.509716 11.9225C0.496915 10.4023 0.49851 8.88189 0.504533 7.3616C0.506925 6.76239 0.979797 6.3027 1.56801 6.3027C2.15867 6.30278 2.62055 6.75549 2.6272 7.3617C2.6357 8.12183 2.6293 8.882 2.6293 9.64216C2.62871 9.64216 2.62817 9.64216 2.62756 9.64216H2.62762V9.64214Z" stroke="#1A1A1A" stroke-linejoin="round"/>
</svg>
