<svg xmlns="http://www.w3.org/2000/svg" width="200" height="200" viewBox="0 0 200 200" fill="none">
<path d="M 196.52,99.98 C 196.52,46.71 152.83,1.63 99.48,1.63 H 98.56 C 63.42,1.63 37.98,18.76 20.77,43.31 C 9.12,60.21 3.48,77.89 3.48,100.51 C 3.48,151.93 47.02,198.23 97.61,198.23 H 99.16 C 151.91,198.23 196.52,154.55 196.52,99.98 Z M 98.36,147.41 C 71.71,147.41 52.39,125.18 52.39,100.26 C 52.39,73.43 74.39,48.29 101.04,51.81 C 126.03,52.96 147.31,73.92 147.31,100.08 C 147.31,125.28 127.07,147.41 98.36,147.41 Z" fill="url(#paint0_linear_201_243)"/>
<path d="M 101.61,1.66 C 66.27,0.61 42.09,15.71 23.04,39.79 C 11.81,54.74 6.31,70.73 6.31,91.81 C 6.31,132.79 41.91,166.39 80.12,166.39 C 114.61,166.39 147.41,141.01 147.41,103.03 L 147.16,103.16 C 145.97,126.15 126.06,146.93 98.36,147.34 C 71.71,147.74 52.39,125.51 52.39,100.59 C 52.39,70.05 76.18,33.75 119.02,33.75 C 157.19,33.75 193.37,65.79 193.37,110.08 C 193.37,126.01 187.32,142.79 178.19,157.01 C 190.72,140.14 196.52,123.08 196.52,100.01 C 196.52,47.58 155.51,3.16 101.61,1.66 Z" fill="url(#paint1_linear_201_243)"/>
<defs>
<linearGradient id="paint0_linear_201_243" x1="10.0251" y1="18.7862" x2="183.632" y2="181.489" gradientUnits="userSpaceOnUse">
<stop stop-color="#3269C7"/>
<stop offset="0.49" stop-color="#244BC6"/>
<stop offset="1" stop-color="#56B6E7"/>
</linearGradient>
<linearGradient id="paint1_linear_201_243" x1="10.0251" y1="18.7862" x2="183.632" y2="181.489" gradientUnits="userSpaceOnUse">
<stop stop-color="#3269C7"/>
<stop offset="0.49" stop-color="#4493D5"/>
<stop offset="1" stop-color="#56B6E7"/>
</linearGradient>
</defs>
</svg>