<svg xmlns="http://www.w3.org/2000/svg" width="256" height="256" fill="none" viewBox="0 0 200 200">
  <path d="m194.6 96.7c-1.85-48.59-42.53-90.99-94.59-90.99-51.21 0-94.19 41.18-94.19 92.38v0.23l0.06-0.01 10.41-1.2c1.29-0.55 3.97-9.68 5.5-15.02 3.2-11.37 5.9-19.75 10.83-19.63 4.11 0.1 5.38 6.62 6.33 10.68l11.47 46.84 16.91-76.27c1.66-7.38 5.36-9.91 7.66-9.77 4.43 0.29 6.6 5.93 8.08 12.97l27.85 115.5h0.51c4.79-12.37 7.83-29.69 12.49-42.17 7.45-20.49 19.97-32.62 38.03-32.58 11.05 0.02 18.78 4.4 32.65 9.03z" fill="url(#icon_top)"/>
  <path d="m161.8 97.43c-16.85 0-24.7 11.75-29.83 30.13-4.05 14.25-6.11 23.66-12.02 41.36-2.37 6.45-6.02 8.35-8.62 8.35-4.55 0-7.53-4.3-9.57-10.55l-26.61-111.9-17.13 76.63c-1.73 7.21-4.5 8.81-7.35 8.61-3.59-0.26-6.32-4.86-7.98-11.17l-10.99-43.85c-3.7 11.12-4.81 17.23-8.33 20.07-3.81 3.08-7.95 3.1-17.16 3.78 3.13 45.12 41.98 85.07 93.84 85.07 48.95 0 91.2-38 94.24-86.39-14.18-5.4-22.16-10.16-32.49-10.16z" fill="url(#icon_bottom)"/>
  <defs>
    <linearGradient id="icon_top" x1="5.808" x2="182.2" y1="5.712" y2="116.2" gradientUnits="userSpaceOnUse">
      <stop stop-color="#f59e0b" offset="0"/>
      <stop stop-color="#d97706" offset="1"/>
    </linearGradient>
    <linearGradient id="icon_bottom" x1="12.05" x2="176.8" y1="87.67" y2="189.8" gradientUnits="userSpaceOnUse">
      <stop stop-color="#d97706" offset="0"/>
      <stop stop-color="#b45309" offset="1"/>
    </linearGradient>
  </defs>
</svg>
