<svg width="18" height="20" viewBox="0 0 18 20" fill="none" xmlns="http://www.w3.org/2000/svg">
<path d="M2.57646 12.4896V5.42061C2.57646 5.33464 2.5604 5.24969 2.54849 5.16466C2.48741 4.72868 2.71941 3.98062 4.08041 3.69108C5.96035 3.29115 14.984 2.89122 15.36 4.49095C15.6608 5.77073 15.4853 10.09 15.36 12.0897M1.82449 13.6894C7.33897 13.4228 17.6158 12.8897 17.24 14.4892C16.7841 16.4292 15.36 16.489 14.2321 16.489C13.1041 16.489 2.95245 16.8889 2.20048 16.489C1.4485 16.089 -0.431436 14.0893 1.82449 13.6894Z" stroke="#1A1A1A" stroke-linecap="round"/>
<path d="M7.33297 10.3333L5.51675 9.0172C5.14996 8.7514 5.16429 8.0918 5.54209 7.85056L7.9182 6.33333M10.667 6.33333L12.4832 7.64947C12.85 7.91527 12.8357 8.57487 12.4579 8.81611L10.0818 10.3333M9.5409 5L8.4591 11.6667" stroke="#1A1A1A" stroke-linecap="round"/>
</svg>
