<svg width="20" height="20" viewBox="0 0 20 20" fill="none" xmlns="http://www.w3.org/2000/svg">
<path d="M9.58837 10.9083C9.70769 10.892 12.5964 10.5382 12.4761 8.07038C12.4651 7.84365 12.4343 7.63739 12.3864 7.45042M9.58837 10.9083C11.1717 10.8122 11.9763 10.2426 12.3364 9.55997M9.58837 10.9083C9.3968 10.9344 9.19924 10.9324 9.0038 10.9039M12.3864 7.45042C12.3265 7.21634 12.2398 7.01248 12.1316 6.8365M12.3864 7.45042C12.6021 7.99914 12.715 8.84207 12.3364 9.55997M12.1316 6.8365C11.2447 5.39377 8.91233 5.82478 8.02417 6.8365C7.67566 7.23382 6.94525 8.24145 7.3012 9.501C7.52433 10.2905 8.24822 10.7941 9.0038 10.9039M12.1316 6.8365C12.4691 7.27188 12.9588 8.29147 12.5401 9.21612M12.3364 9.55997C12.4201 9.44777 12.4874 9.3327 12.5401 9.21612M9.0038 10.9039C10.0029 11.0636 12.109 10.9495 12.5401 9.21612M14.8346 14.2233L15.0495 14.6179C15.3092 15.0949 15.4272 15.6482 15.1897 16.1349M14.8346 14.2233C14.3692 13.3684 13.4177 12.8283 12.3769 12.8283H7.52997C6.48918 12.8283 5.53772 13.3684 5.07226 14.2233L4.96684 14.4169C4.64093 15.0155 4.5612 15.7223 4.90393 16.313C5.95001 18.1157 7.75868 18.8869 9.58837 18.9331M14.8346 14.2233C15.3123 15.4964 14.9318 18.2208 9.58837 18.9331M15.1897 16.1349C14.3584 17.8389 11.9558 18.9929 9.58837 18.9331M15.1897 16.1349C14.9581 17.2643 13.5136 19.405 9.58837 18.9331M4.50403 4.76868C4.58924 4.75641 6.65226 4.48963 6.56633 2.62929C6.55843 2.45837 6.53644 2.30288 6.50226 2.16193M4.50403 4.76868C5.63478 4.69624 6.20937 4.26684 6.46652 3.75222M4.50403 4.76868C4.36722 4.78837 4.22613 4.7868 4.08656 4.76537M6.50226 2.16193C6.45947 1.98547 6.39757 1.83179 6.32031 1.69913M6.50226 2.16193C6.65631 2.57559 6.73695 3.21103 6.46652 3.75222M6.32031 1.69913C5.68693 0.611524 4.02123 0.936443 3.38695 1.69913C3.13806 1.99865 2.61644 2.75826 2.87064 3.70776C3.02998 4.30297 3.54695 4.68255 4.08656 4.76537M6.32031 1.69913C6.56132 2.02734 6.911 2.79596 6.61204 3.49301M6.46652 3.75222C6.52635 3.66764 6.57435 3.58089 6.61204 3.49301M4.08656 4.76537C4.80009 4.8857 6.30413 4.79969 6.61204 3.49301M5.09091 6.21607H3.03402C2.29073 6.21607 1.61124 6.62318 1.27884 7.26767L1.20355 7.41364C0.970799 7.86491 0.913859 8.39772 1.15862 8.84297M15.496 4.76868C15.4108 4.75641 13.3477 4.48963 13.4337 2.62929C13.4416 2.45837 13.4636 2.30288 13.4977 2.16193M15.496 4.76868C14.3652 4.69624 13.7906 4.26684 13.5335 3.75222M15.496 4.76868C15.6328 4.78837 15.7739 4.7868 15.9134 4.76537M13.4977 2.16193C13.5405 1.98547 13.6024 1.83179 13.6797 1.69913M13.4977 2.16193C13.3437 2.57559 13.2631 3.21103 13.5335 3.75222M13.6797 1.69913C14.3131 0.611524 15.9788 0.936443 16.6131 1.69913C16.8619 1.99865 17.3836 2.75826 17.1294 3.70776C16.97 4.30297 16.453 4.68255 15.9134 4.76537M13.6797 1.69913C13.4387 2.02734 13.089 2.79596 13.388 3.49301M13.5335 3.75222C13.4736 3.66764 13.4256 3.58089 13.388 3.49301M15.9134 4.76537C15.1999 4.8857 13.6959 4.79969 13.388 3.49301M14.9091 6.21607H16.966C17.7093 6.21607 18.3888 6.62318 18.7212 7.26767L18.7965 7.41364C19.0292 7.86491 19.0861 8.39772 18.8414 8.84297" stroke="#1A1A1A" stroke-linecap="round"/>
</svg>
