<svg width="24" height="24" viewBox="0 0 24 24" fill="none" xmlns="http://www.w3.org/2000/svg">
<path d="M7.74432 8.4586C7.68689 6.59903 8.27199 2.29146 11.3475 2.01801C14.5201 1.73593 15.2857 4.83348 15.3671 6.67216M7.28318 8.33323C6.83198 8.41161 5.76129 8.69343 5.3519 9.38318M5.3519 9.38318C5.38571 9.36421 5.41885 9.34684 5.45133 9.331M5.3519 9.38318C5.33717 9.4138 5.31681 9.46092 5.29325 9.5207M7.07948 18.2799V11.0328C7.07948 10.2691 7.61028 9.59705 8.38233 9.38324L15.2841 7.47195C16.4421 7.15127 17.6 7.97604 17.6 9.12152V15.5459C17.6 16.2393 17.1611 16.8648 16.4872 17.1318L9.58547 19.8658C9.01022 20.0936 8.40652 20.0178 7.93582 19.7405M7.07948 18.2799C7.07948 18.3241 7.08119 18.3678 7.08454 18.411M7.07948 18.2799L7.08454 18.411M7.93582 19.7405C7.86142 19.6967 7.79033 19.6478 7.72321 19.5943M7.93582 19.7405C7.68632 19.6587 7.46058 19.5776 7.25667 19.4977M7.93582 19.7405C7.86311 19.6796 7.79185 19.6336 7.72321 19.5943M7.72321 19.5943C7.36686 19.3103 7.12216 18.8957 7.08454 18.411M7.72321 19.5943C7.5425 19.4909 7.37994 19.4337 7.25667 19.2695M7.08454 18.411L7.10441 18.926M6.94268 10.2326C6.97467 10.3354 6.99957 10.4312 7.01916 10.5119V17.9737C7.01916 18.4122 7.0499 18.7128 7.10441 18.926M6.94268 10.2326V19.3685M6.94268 10.2326C6.9176 10.1521 6.88816 10.0673 6.85349 9.98244M6.94268 19.3685C7.00107 19.3938 7.06163 19.4193 7.12443 19.4449M6.94268 19.3685C6.8955 19.348 6.84972 19.3277 6.80533 19.3075M7.12443 19.4449L7.10441 18.926M7.12443 19.4449C7.16745 19.4624 7.21152 19.48 7.25667 19.4977M7.10441 18.926C7.14369 19.0796 7.19531 19.1878 7.25667 19.2695M7.25667 19.4977V19.2695M6.72334 19.2695V9.71467M6.72334 19.2695C6.75013 19.2821 6.77746 19.2948 6.80533 19.3075M6.72334 19.2695C6.67512 19.2469 6.62864 19.2243 6.58384 19.202M6.72334 9.71467C6.7734 9.80077 6.81643 9.89168 6.85349 9.98244M6.72334 9.71467C6.68187 9.64332 6.63557 9.57528 6.58384 9.51337M6.85349 9.98244L6.80533 19.3075M6.58384 19.202V9.51337M6.58384 19.202C6.53931 19.1798 6.49645 19.1578 6.4552 19.136M6.58384 9.51337C6.54423 9.46595 6.50144 9.42213 6.4552 9.38318M6.4552 9.38318V19.136M6.4552 9.38318C6.40119 9.33768 6.34247 9.29881 6.27861 9.26861M6.4552 19.136C6.39267 19.1029 6.33387 19.0702 6.27861 19.038M6.27861 19.038V9.26861M6.27861 19.038C6.24428 19.018 6.21132 18.9983 6.17969 18.9787M6.27861 9.26861C6.24692 9.25362 6.21396 9.24076 6.17969 9.23029M6.09012 9.20901V18.9214M6.09012 9.20901C6.06025 9.20387 6.02946 9.20046 5.99773 9.19892M6.09012 9.20901C6.12094 9.21431 6.15078 9.22145 6.17969 9.23029M6.09012 18.9214C6.05774 18.9001 6.02696 18.879 5.99773 18.8581M6.09012 18.9214C6.11872 18.9403 6.14856 18.9594 6.17969 18.9787M5.90267 18.7873V9.20901L5.78906 9.21964M5.90267 18.7873C5.861 18.7547 5.82321 18.723 5.78906 18.6921M5.90267 18.7873C5.93236 18.8105 5.96402 18.8341 5.99773 18.8581M5.69229 18.5968C5.67535 18.5784 5.65977 18.5605 5.64549 18.5429C5.60822 18.4971 5.57319 18.4355 5.54028 18.3597M5.69229 18.5968V9.23732M5.69229 18.5968C5.72064 18.6275 5.7528 18.6593 5.78906 18.6921M5.74467 9.22379C5.72744 9.22781 5.70998 9.23231 5.69229 9.23732M5.74467 9.22379L5.78906 9.21964M5.74467 9.22379C5.83506 9.20272 5.91927 9.19511 5.99773 9.19892M5.69229 9.23732C5.64338 9.25118 5.59274 9.26889 5.54028 9.29075M5.78906 9.21964V18.6921M5.54028 18.3597V9.29075M5.54028 18.3597C5.50873 18.2871 5.47913 18.2016 5.45133 18.1046M5.54028 9.29075C5.51119 9.30287 5.48154 9.31627 5.45133 9.331M5.45133 9.331V18.1046M5.45133 18.1046C5.39033 17.8919 5.33807 17.6242 5.29325 17.318M5.29325 17.318V9.5207M5.29325 17.318C5.23957 16.9513 5.19656 16.5294 5.16199 16.0802M5.29325 9.5207C5.25278 9.62338 5.20287 9.76339 5.15576 9.9212M5.15576 9.9212C5.06648 10.2203 4.98731 10.5833 5.0017 10.8773C5.02285 11.3091 5.00101 13.989 5.16199 16.0802M5.15576 9.9212L5.16199 16.0802M5.99773 9.19892V18.8581M6.17969 18.9787V9.23029" stroke="black" stroke-linecap="round"/>
</svg>
