<svg width="18" height="18" viewBox="0 0 18 18" fill="none" xmlns="http://www.w3.org/2000/svg">
<path d="M11.25 5.32759C10.658 5.02747 9.75927 4.74677 8.91889 4.75003C7.90606 4.75396 6.97804 5.17036 6.77416 6.46237C6.50526 8.1664 8.54368 8.77813 9.758 9.39386C11.4366 10.245 11.4213 11.8405 10.4108 12.6091C9.95626 12.9548 9.44022 13.1445 8.91889 13.2162C8.86263 13.2239 8.80631 13.2303 8.75 13.2353M8.75 13.2353C8.04343 13.2985 7.33828 13.1528 6.77416 12.8928M8.75 13.2353V14.625M8.75 4.75V3.75M8.20389 17.1897C8.57721 17.1362 17.615 15.9724 17.2386 7.8573C17.204 7.1117 17.1076 6.43343 16.9579 5.81858C16.7704 5.04881 16.4992 4.37843 16.1608 3.79973C13.3861 -0.94461 6.08884 0.472751 3.31011 3.79973C2.21976 5.10631 -0.0653913 8.41986 1.04822 12.5618C1.7463 15.1582 4.01108 16.814 6.375 17.1753C6.98646 17.2688 7.60456 17.2756 8.20389 17.1897Z" stroke="#1A1A1A" stroke-linecap="round"/>
</svg>
