<svg width="18" height="18" viewBox="0 0 18 18" fill="none" xmlns="http://www.w3.org/2000/svg">
<path d="M4.90909 7.5C3.0263 7.5 1.5 5.98896 1.5 4.125C1.5 2.26104 3.0263 0.75 4.90909 0.75M4.90909 7.5C6.79188 7.5 8.31818 5.98896 8.31818 4.125C8.31818 3.79719 8.27097 3.4803 8.18292 3.18062M4.90909 7.5H11.0455M4.90909 0.75C6.00248 0.75 6.97564 1.25959 7.59948 2.05195M4.90909 0.75H13.0909C14.9737 0.75 16.5 2.26104 16.5 4.125C16.5 5.98896 14.9737 7.5 13.0909 7.5H12.4091M13.0909 17.25C14.9737 17.25 16.5 15.739 16.5 13.875C16.5 12.011 14.9737 10.5 13.0909 10.5M13.0909 17.25C11.2081 17.25 9.68182 15.739 9.68182 13.875C9.68182 13.5472 9.72903 13.2303 9.81708 12.9306M13.0909 17.25H6.95455M13.0909 10.5C11.9975 10.5 11.0244 11.0096 10.4005 11.802M13.0909 10.5H4.90909C3.0263 10.5 1.5 12.011 1.5 13.875C1.5 15.739 3.0263 17.25 4.90909 17.25H5.59091" stroke="#1A1A1A" stroke-linecap="round"/>
</svg>
